<svg xmlns="http://www.w3.org/2000/svg" viewBox="0 0 360 88" role="img" aria-labelledby="title desc">
<title id="title">MPLADS Public Fund Guardian</title>
<desc id="desc">AI-powered monitoring for public funds, project progress and fraud risk detection</desc>
<defs><linearGradient id="g" x1="0" y1="0" x2="1" y2="1"><stop offset="0" stop-color="#4f46e5"/><stop offset="1" stop-color="#7c3aed"/></linearGradient></defs>
<rect x="3" y="3" width="82" height="82" rx="20" fill="url(#g)"/>
<path d="M44 16l24 9v18c0 15-9.8 25.8-24 31-14.2-5.2-24-16-24-31V25l24-9z" fill="none" stroke="#fff" stroke-width="3.5"/>
<path d="M31 55h8V43h9v17h9V34h9" fill="none" stroke="#fff" stroke-width="3.5" stroke-linecap="round" stroke-linejoin="round"/>
<circle cx="31" cy="55" r="2.3" fill="#fff"/><circle cx="39" cy="43" r="2.3" fill="#fff"/><circle cx="48" cy="60" r="2.3" fill="#fff"/><circle cx="57" cy="34" r="2.3" fill="#fff"/>
<circle cx="67" cy="60" r="8" fill="#fff"/><path d="M72.5 65.5l5 5" stroke="#4f46e5" stroke-width="3" stroke-linecap="round"/><path d="M63.5 60h7M67 56.5v7" stroke="#4f46e5" stroke-width="2" stroke-linecap="round"/>
<text x="105" y="35" font-family="Inter,Arial,sans-serif" font-size="21" font-weight="800" fill="#0f172a">PUBLIC FUND GUARDIAN</text>
<text x="105" y="56" font-family="Inter,Arial,sans-serif" font-size="11" font-weight="700" fill="#475569" letter-spacing="1.25">AI MONITORING • FRAUD RISK • ACCOUNTABILITY</text>
<text x="105" y="74" font-family="Inter,Arial,sans-serif" font-size="10" font-weight="500" fill="#64748b">MPLADS implementation intelligence</text>
</svg>
